<?xml version="1.0" ?><svg id="Layer_2" style="enable-background:new 0 0 64 64;" version="1.1" viewBox="0 0 64 64" xml:space="preserve" xmlns="http://www.w3.org/2000/svg" xmlns:xlink="http://www.w3.org/1999/xlink"><title/><path d="M9,62H7c-0.6,0-1,0.4-1,1s0.4,1,1,1h2c0.6,0,1-0.4,1-1S9.6,62,9,62z"/><path d="M3,62H1c-0.6,0-1,0.4-1,1s0.4,1,1,1h2c0.6,0,1-0.4,1-1S3.6,62,3,62z"/><path d="M49,56c-0.6,0-1,0.4-1,1s0.4,1,1,1h2c0.6,0,1-0.4,1-1s-0.4-1-1-1H49z"/><path d="M55,56c-0.6,0-1,0.4-1,1s0.4,1,1,1h2c0.6,0,1-0.4,1-1s-0.4-1-1-1H55z"/><path d="M43,56c-0.6,0-1,0.4-1,1s0.4,1,1,1h2c0.6,0,1-0.4,1-1s-0.4-1-1-1H43z"/><path d="M63,62H32.9c-0.2-2-0.5-7.3-0.6-13.7c0.2,0.1,0.4,0.3,0.6,0.5c0.8,0.8,1.8,1.2,2.9,1.2l0,0c1.1,0,2.2-0.5,2.9-1.3  c0.4-0.5,1-0.7,1.6-0.8l0,0c0.6,0,1.2,0.3,1.6,0.7c0.8,0.8,1.8,1.2,2.9,1.2l0,0c1.1,0,2.2-0.5,2.9-1.2c0.4-0.5,1-0.7,1.6-0.8l0,0  c0.6,0,1.2,0.3,1.6,0.7c0.8,0.8,1.8,1.2,2.9,1.2l0,0c1.1,0,2.2-0.5,2.9-1.3c0.4-0.5,1-0.7,1.6-0.8l0,0c0.6,0,1.2,0.3,1.6,0.7  c0.8,0.8,1.8,1.2,2.9,1.3l0,0c0.6,0,1-0.4,1-1s-0.4-1-1-1l0,0c-0.6,0-1.2-0.3-1.6-0.7c-0.8-0.8-1.8-1.2-2.9-1.3l0,0  c-1.1,0-2.2,0.5-2.9,1.3c-0.4,0.5-1,0.7-1.6,0.8l0,0c-0.6,0-1.2-0.3-1.6-0.7c-0.8-0.8-1.8-1.2-2.9-1.2l0,0c-1.1,0-2.2,0.5-2.9,1.3  c-0.4,0.5-1,0.7-1.6,0.8l0,0c-0.6,0-1.2-0.3-1.6-0.7c-0.8-0.8-1.8-1.2-2.9-1.2l0,0c-1.1,0-2.2,0.5-2.9,1.3c-0.4,0.5-1,0.7-1.6,0.8  l0,0c-0.6,0-1.2-0.3-1.6-0.7c-0.5-0.5-1.2-0.9-1.9-1.1c0-9.8,0.6-21.7,3.7-28.7c0.2-0.5,0-1.1-0.5-1.3c-0.4-0.2-0.8-0.1-1.1,0.2  c-0.2,0.2-5.5,5.2-9.8,15.3c-0.2,0.5,0,1.1,0.5,1.3s1.1,0,1.3-0.5l0,0c1.6-3.8,3.7-7.5,6.1-10.8c-0.9,3.8-1.5,7.6-1.8,11.4H28  c-0.6,0-1,0.4-1,1s0.4,1,1,1h2.6c-0.1,1.7-0.2,3.3-0.2,5H27c-0.6,0-1,0.4-1,1s0.4,1,1,1h3.3c-0.2,9,0.4,17.1,0.6,20H21  c-0.1-3,0-6,0.3-9h5c0.6,0,1-0.4,1-1s-0.4-1-1-1h-4.8c0.6-5.1,1.7-10.1,3.4-15c0.2-0.5-0.1-1.1-0.6-1.3c-0.5-0.2-1.1,0.1-1.3,0.6  l0,0c-1.2,3.5-2.2,7.1-2.8,10.7c-0.9,0.2-1.7,0.6-2.3,1.2C17.4,47.7,16.7,48,16,48c-0.7,0-1.4-0.3-1.9-0.8c-1.8-1.6-4.5-1.6-6.3,0  c-1,1-2.7,1-3.7,0c0,0,0,0,0,0C3.3,46.4,2.2,46,1,46c-0.6,0-1,0.4-1,1s0.4,1,1,1c0.7,0,1.4,0.3,1.9,0.8C3.7,49.6,4.8,50,6,50  c1.2,0,2.3-0.4,3.1-1.2C9.6,48.3,10.3,48,11,48c0.7,0,1.4,0.3,1.9,0.8c1.8,1.6,4.5,1.6,6.3,0c0.2-0.2,0.5-0.4,0.7-0.5  c-0.7,4.5-1,9.1-0.9,13.7h-6c-0.6,0-1,0.4-1,1s0.4,1,1,1h50c0.6,0,1-0.4,1-1S63.6,62,63,62z"/><path d="M13,16.1l-8.6,6.1c-0.5,0.3-0.6,0.9-0.2,1.4C4.4,23.8,4.7,24,5,24h21c0.6,0,1-0.4,1-1s-0.4-1-1-1H8.1l6.1-4.3  c2.3-1.8,3.5-2.7,5.5-2.7H29c0.5,0,0.9-0.3,1-0.8c0.1-0.5-0.2-1-0.7-1.2L8.1,7.8l3.3-1.4c0.5-0.2,0.7-0.8,0.5-1.3  c-0.2-0.5-0.8-0.7-1.3-0.5l-6,2.6C4.1,7.3,3.9,7.9,4.1,8.4C4.2,8.7,4.5,8.9,4.8,9l16.1,4h-1.1C17.1,13,15.5,14.1,13,16.1z"/><path d="M15.4,4.6L19,3.1l13.6,6.8c0.5,0.2,1.1,0,1.3-0.4s0-1.1-0.4-1.3l-14-7c-0.3-0.1-0.6-0.1-0.8,0l-4,1.7  c-0.5,0.2-0.7,0.8-0.5,1.3C14.3,4.6,14.9,4.8,15.4,4.6L15.4,4.6z"/><path d="M35.7,12c0.1,0,0.2,0,0.3,0c0.4,0,0.8-0.3,1-0.7l3-10c0.2-0.5-0.1-1.1-0.7-1.2c-0.5-0.2-1.1,0.1-1.2,0.7l-3,10  C34.9,11.2,35.2,11.8,35.7,12C35.7,12,35.7,12,35.7,12z"/><path d="M41.6,9.8l8.6-6.7l8.2,3L42.8,13H42c-0.6,0-1,0.4-1,1s0.4,1,1,1h8c0.6,0,1-0.4,1-1s-0.4-1-1-1h-2.3l13.7-6.1  c0.5-0.2,0.7-0.8,0.5-1.3c-0.1-0.2-0.3-0.4-0.6-0.5l-11-4c-0.3-0.1-0.7-0.1-1,0.1l-9,7c-0.4,0.3-0.5,1-0.2,1.4  C40.6,10,41.2,10.1,41.6,9.8L41.6,9.8z"/><path d="M39.6,20.9C39.6,20.9,39.7,20.9,39.6,20.9l10.6,3.9l2,5.3l-14.8-7c-0.5-0.2-1.1,0-1.3,0.5c-0.2,0.5,0,1.1,0.5,1.3l17,8  c0.5,0.2,1.1,0,1.3-0.5c0.1-0.2,0.1-0.5,0-0.8l-3-8c-0.1-0.3-0.3-0.5-0.6-0.6L45.7,21H61c0.6,0,1-0.4,1-1c0-0.2-0.1-0.5-0.2-0.6  l-5-6C56.6,13.1,56.3,13,56,13h-2c-0.6,0-1,0.4-1,1s0.4,1,1,1h1.5l3.3,4H40c0,0,0,0,0,0c-0.3,0.1-0.8,0.3-0.9,0.8  C39,20.2,39.2,20.7,39.6,20.9z"/></svg>